<svg width="117" height="12" viewBox="0 0 117 12" fill="none" xmlns="http://www.w3.org/2000/svg">
<path d="M4.83301 8.19727H3.02832L2.48145 11H1.50391L2.05078 8.19727H0.416992L0.416992 7.26074H2.22852L2.7002 4.84082H0.936523L0.936523 3.89062L2.88477 3.89062L3.44531 1.04687H4.42285L3.8623 3.89062H5.66699L6.22754 1.04687H7.20508L6.64453 3.89062H8.0459V4.84082H6.45996L5.98828 7.26074H7.5332V8.19727H5.81055L5.26367 11H4.28613L4.83301 8.19727ZM3.20605 7.26074H5.01074L5.48242 4.84082H3.67773L3.20605 7.26074ZM10.9785 7.00781V11H9.71387L9.71387 1.04687H12.9404C13.387 1.05599 13.8086 1.12663 14.2051 1.25879C14.6061 1.39095 14.957 1.58236 15.2578 1.83301C15.5586 2.08366 15.7956 2.39355 15.9688 2.7627C16.1465 3.13184 16.2354 3.55566 16.2354 4.03418C16.2354 4.5127 16.1465 4.93652 15.9688 5.30566C15.7956 5.67025 15.5586 5.97786 15.2578 6.22852C14.957 6.47917 14.6061 6.67057 14.2051 6.80273C13.8086 6.9349 13.387 7.00326 12.9404 7.00781H10.9785ZM10.9785 5.96875H12.9404C13.2321 5.96419 13.501 5.91862 13.7471 5.83203C13.9932 5.74089 14.2074 5.61328 14.3896 5.44922C14.5719 5.28516 14.7132 5.08691 14.8135 4.85449C14.9183 4.61751 14.9707 4.34863 14.9707 4.04785C14.9707 3.74707 14.9183 3.47591 14.8135 3.23437C14.7132 2.99284 14.5742 2.78776 14.3965 2.61914C14.2142 2.45052 13.9977 2.32064 13.7471 2.22949C13.501 2.13835 13.2321 2.09049 12.9404 2.08594H10.9785L10.9785 5.96875ZM22.8525 3.4668C23.085 3.4668 23.3265 3.48275 23.5771 3.51465C23.8324 3.54655 24.0238 3.58984 24.1514 3.64453L23.9805 4.88184C23.7344 4.82715 23.4997 4.78841 23.2764 4.76562C23.0576 4.73828 22.8275 4.72461 22.5859 4.72461C22.276 4.72461 21.9958 4.76335 21.7451 4.84082C21.4945 4.91374 21.2757 5.02311 21.0889 5.16895C20.9202 5.29655 20.7721 5.45378 20.6445 5.64062C20.5215 5.82292 20.4189 6.02799 20.3369 6.25586L20.3369 11H19.0654L19.0654 3.60352L20.2686 3.60352L20.3232 4.59473L20.3301 4.7793C20.6309 4.3737 20.9909 4.05469 21.4102 3.82227C21.834 3.58529 22.3148 3.4668 22.8525 3.4668ZM29.6816 11.1367C29.1621 11.1367 28.6836 11.0479 28.2461 10.8701C27.8132 10.6924 27.4417 10.444 27.1318 10.125C26.8219 9.80599 26.5804 9.42773 26.4072 8.99023C26.234 8.55273 26.1475 8.0765 26.1475 7.56152V7.27441C26.1475 6.67741 26.2432 6.14421 26.4346 5.6748C26.626 5.20085 26.8812 4.7998 27.2002 4.47168C27.5146 4.14811 27.8724 3.89974 28.2734 3.72656C28.679 3.55339 29.0938 3.4668 29.5176 3.4668C30.0508 3.4668 30.5156 3.56022 30.9121 3.74707C31.3132 3.92936 31.6458 4.18229 31.9102 4.50586C32.1745 4.83398 32.3704 5.21908 32.498 5.66113C32.6302 6.10319 32.6963 6.58171 32.6963 7.09668V7.66406L27.4121 7.66406V7.71191C27.444 8.07194 27.5146 8.38867 27.624 8.66211C27.738 8.93555 27.8929 9.17708 28.0889 9.38672C28.2894 9.61003 28.5309 9.78548 28.8135 9.91309C29.096 10.0407 29.4082 10.1045 29.75 10.1045C30.2012 10.1045 30.6022 10.0133 30.9531 9.83105C31.304 9.64876 31.5957 9.40723 31.8281 9.10645L32.6006 9.70801C32.3545 10.0817 31.9854 10.4144 31.4932 10.7061C31.0055 10.9932 30.4017 11.1367 29.6816 11.1367ZM29.5176 4.50586C29.2624 4.50586 29.0208 4.55371 28.793 4.64941C28.5651 4.74056 28.36 4.875 28.1777 5.05273C27.9954 5.23503 27.8405 5.45833 27.7129 5.72266C27.5898 5.98242 27.5033 6.2832 27.4531 6.625L31.4316 6.625V6.56348C31.4316 6.33561 31.3883 6.0918 31.3018 5.83203C31.2152 5.56771 31.0944 5.33984 30.9395 5.14844C30.7845 4.95703 30.5885 4.80208 30.3516 4.68359C30.1191 4.5651 29.8411 4.50586 29.5176 4.50586ZM35.4033 3.60352L35.4375 4.30078C35.5879 4.04102 35.7839 3.83822 36.0254 3.69238C36.2715 3.54655 36.5677 3.47135 36.9141 3.4668C37.11 3.4668 37.2855 3.48958 37.4404 3.53516C37.5999 3.57617 37.7389 3.6377 37.8574 3.71973C37.944 3.78353 38.0215 3.861 38.0898 3.95215C38.1628 4.04329 38.2243 4.14583 38.2744 4.25977C38.3382 4.15495 38.4134 4.05697 38.5 3.96582C38.5866 3.87467 38.68 3.79492 38.7803 3.72656C38.9079 3.64909 39.0492 3.58757 39.2041 3.54199C39.3636 3.49642 39.5368 3.47135 39.7236 3.4668C39.9788 3.4668 40.209 3.50553 40.4141 3.58301C40.6191 3.65592 40.7923 3.7653 40.9336 3.91113C41.0885 4.0752 41.207 4.28939 41.2891 4.55371C41.3711 4.81348 41.4121 5.12109 41.4121 5.47656V11H40.209V5.46289C40.209 5.30794 40.1908 5.17122 40.1543 5.05273C40.1178 4.93424 40.0654 4.83626 39.9971 4.75879C39.9242 4.68587 39.833 4.63118 39.7236 4.59473C39.6188 4.55827 39.4958 4.54004 39.3545 4.54004C39.2041 4.54004 39.0742 4.56055 38.9648 4.60156C38.8555 4.64258 38.7643 4.69727 38.6914 4.76562C38.6185 4.83854 38.5615 4.92285 38.5205 5.01855C38.4795 5.1097 38.4521 5.21224 38.4385 5.32617C38.4385 5.34896 38.4385 5.37174 38.4385 5.39453C38.4385 5.41276 38.4385 5.43555 38.4385 5.46289V11H37.2354V5.45605C37.2354 5.30111 37.2171 5.16439 37.1807 5.0459C37.1488 4.92741 37.0964 4.82943 37.0234 4.75195C36.9551 4.67904 36.8685 4.62663 36.7637 4.59473C36.6634 4.55827 36.5449 4.54004 36.4082 4.54004C36.2578 4.54004 36.1257 4.55827 36.0117 4.59473C35.9023 4.62663 35.8089 4.67448 35.7314 4.73828C35.6722 4.78841 35.6198 4.84538 35.5742 4.90918C35.5332 4.97298 35.499 5.04134 35.4717 5.11426V11H34.2686V3.60352H35.4033ZM43.4287 3.60352L47.209 3.60352V9.90625H49.6221V11H43.4287V9.90625H45.9443V4.7041H43.4287V3.60352ZM45.7803 1.66211C45.7803 1.55273 45.7962 1.4502 45.8281 1.35449C45.8646 1.25879 45.9193 1.17676 45.9922 1.1084C46.0514 1.04915 46.1266 1.00358 46.2178 0.97168C46.3135 0.935221 46.4206 0.916992 46.5391 0.916992C46.6576 0.916992 46.7624 0.935221 46.8535 0.97168C46.9447 1.00358 47.0199 1.04915 47.0791 1.1084C47.152 1.1722 47.2067 1.25195 47.2432 1.34766C47.2796 1.44336 47.2979 1.54818 47.2979 1.66211C47.2979 1.86719 47.234 2.03809 47.1064 2.1748C46.9788 2.31152 46.7897 2.37988 46.5391 2.37988C46.2839 2.37988 46.0924 2.31152 45.9648 2.1748C45.8418 2.03809 45.7803 1.86719 45.7803 1.66211ZM51.2832 7.2334C51.2832 6.7002 51.3607 6.20573 51.5156 5.75C51.6706 5.28971 51.8939 4.89095 52.1855 4.55371C52.4727 4.21647 52.8236 3.95215 53.2383 3.76074C53.653 3.56478 54.1201 3.4668 54.6396 3.4668C55.1637 3.4668 55.6331 3.56478 56.0479 3.76074C56.4671 3.95215 56.8226 4.21647 57.1143 4.55371C57.4014 4.89095 57.6224 5.28971 57.7773 5.75C57.9323 6.20573 58.0098 6.7002 58.0098 7.2334V7.38379C58.0098 7.91699 57.9323 8.41146 57.7773 8.86719C57.6224 9.32292 57.4014 9.7194 57.1143 10.0566C56.8226 10.3939 56.4694 10.6582 56.0547 10.8496C55.64 11.041 55.1729 11.1367 54.6533 11.1367C54.1292 11.1367 53.6576 11.041 53.2383 10.8496C52.8236 10.6582 52.4727 10.3939 52.1855 10.0566C51.8939 9.7194 51.6706 9.32292 51.5156 8.86719C51.3607 8.41146 51.2832 7.91699 51.2832 7.38379V7.2334ZM52.5479 7.38379C52.5479 7.74837 52.5911 8.09701 52.6777 8.42969C52.7643 8.75781 52.8965 9.0472 53.0742 9.29785C53.2474 9.5485 53.4661 9.74674 53.7305 9.89258C53.9948 10.0384 54.3024 10.1113 54.6533 10.1113C54.9997 10.1113 55.3027 10.0384 55.5625 9.89258C55.8268 9.74674 56.0479 9.5485 56.2256 9.29785C56.3988 9.0472 56.5286 8.75781 56.6152 8.42969C56.7018 8.09701 56.7451 7.74837 56.7451 7.38379V7.2334C56.7451 6.87337 56.6995 6.5293 56.6084 6.20117C56.5218 5.86849 56.3919 5.57682 56.2188 5.32617C56.041 5.07552 55.82 4.87728 55.5557 4.73145C55.2959 4.58105 54.9906 4.50586 54.6396 4.50586C54.2887 4.50586 53.9834 4.58105 53.7236 4.73145C53.4639 4.87728 53.2474 5.07552 53.0742 5.32617C52.8965 5.57682 52.7643 5.86849 52.6777 6.20117C52.5911 6.5293 52.5479 6.87337 52.5479 7.2334V7.38379ZM61.4277 7.00781V11L60.1631 11V1.04687H63.3896C63.8363 1.05599 64.2578 1.12663 64.6543 1.25879C65.0553 1.39095 65.4062 1.58236 65.707 1.83301C66.0078 2.08366 66.2448 2.39355 66.418 2.7627C66.5957 3.13184 66.6846 3.55566 66.6846 4.03418C66.6846 4.5127 66.5957 4.93652 66.418 5.30566C66.2448 5.67025 66.0078 5.97786 65.707 6.22852C65.4062 6.47917 65.0553 6.67057 64.6543 6.80273C64.2578 6.9349 63.8363 7.00326 63.3896 7.00781H61.4277ZM61.4277 5.96875H63.3896C63.6813 5.96419 63.9502 5.91862 64.1963 5.83203C64.4424 5.74089 64.6566 5.61328 64.8389 5.44922C65.0212 5.28516 65.1624 5.08691 65.2627 4.85449C65.3675 4.61751 65.4199 4.34863 65.4199 4.04785C65.4199 3.74707 65.3675 3.47591 65.2627 3.23437C65.1624 2.99284 65.0234 2.78776 64.8457 2.61914C64.6634 2.45052 64.4469 2.32064 64.1963 2.22949C63.9502 2.13835 63.6813 2.09049 63.3896 2.08594H61.4277V5.96875ZM73.2061 8.42285L69.8838 8.42285L69.084 11H67.8193L71.0322 1.04687H72.0918L75.25 11H73.9922L73.2061 8.42285ZM70.2256 7.32227L72.8711 7.32227L71.5586 3.00195L70.2256 7.32227ZM78.251 1.04687L79.8711 6.02344L81.6211 1.04687H83.1934V11L81.9629 11V7.02832L82.0654 2.87207L80.2266 8.23145H79.502L77.8135 3.01562L77.916 7.02832V11H76.6855V1.04687H78.251ZM91.376 11H84.8545V10.0908L88.1152 6.46777C88.4069 6.14421 88.6507 5.8571 88.8467 5.60645C89.0426 5.35579 89.1999 5.12337 89.3184 4.90918C89.4368 4.69954 89.5212 4.5013 89.5713 4.31445C89.6214 4.12305 89.6465 3.92708 89.6465 3.72656C89.6465 3.48047 89.6055 3.25033 89.5234 3.03613C89.446 2.81738 89.332 2.62826 89.1816 2.46875C89.0267 2.30924 88.8398 2.18392 88.6211 2.09277C88.4069 1.99707 88.1631 1.94922 87.8896 1.94922C87.557 1.94922 87.2676 1.99707 87.0215 2.09277C86.7799 2.18848 86.5794 2.32292 86.4199 2.49609C86.2559 2.67383 86.1328 2.88802 86.0508 3.13867C85.9733 3.38932 85.9346 3.6696 85.9346 3.97949L84.6631 3.97949C84.6631 3.56022 84.736 3.16602 84.8818 2.79687C85.0277 2.42318 85.2396 2.09733 85.5176 1.81934C85.791 1.54134 86.126 1.32031 86.5225 1.15625C86.9235 0.992187 87.3792 0.910156 87.8896 0.910156C88.359 0.910156 88.7806 0.980794 89.1543 1.12207C89.5326 1.25879 89.8516 1.4502 90.1113 1.69629C90.3711 1.94238 90.5693 2.23405 90.7061 2.57129C90.8473 2.90853 90.918 3.27539 90.918 3.67187C90.918 3.9681 90.8678 4.26204 90.7676 4.55371C90.6673 4.84082 90.5329 5.12565 90.3643 5.4082C90.1911 5.69076 89.9906 5.97103 89.7627 6.24902C89.5394 6.52246 89.3024 6.7959 89.0518 7.06934L86.3789 9.96777H91.376V11ZM99.9277 7.19238C99.9277 7.82585 99.8548 8.38867 99.709 8.88086C99.5632 9.36849 99.3535 9.77865 99.0801 10.1113C98.8066 10.4486 98.4717 10.7038 98.0752 10.877C97.6787 11.0501 97.2253 11.1367 96.7148 11.1367C96.209 11.1367 95.7555 11.0524 95.3545 10.8838C94.9535 10.7106 94.6139 10.4531 94.3359 10.1113C94.0579 9.77865 93.846 9.36849 93.7002 8.88086C93.5544 8.38867 93.4814 7.82585 93.4814 7.19238V4.86133C93.4814 4.22786 93.5544 3.66732 93.7002 3.17969C93.846 2.6875 94.0579 2.27279 94.3359 1.93555C94.6094 1.59831 94.9443 1.3431 95.3408 1.16992C95.7419 0.992187 96.1953 0.90332 96.7012 0.90332C97.2116 0.90332 97.665 0.992187 98.0615 1.16992C98.4626 1.3431 98.8021 1.59831 99.0801 1.93555C99.3535 2.27279 99.5632 2.6875 99.709 3.17969C99.8548 3.66732 99.9277 4.22786 99.9277 4.86133V7.19238ZM94.7529 6.93945L98.6289 3.96582C98.5924 3.6377 98.5264 3.34831 98.4307 3.09766C98.3395 2.84245 98.2142 2.63053 98.0547 2.46191C97.8997 2.28874 97.7083 2.15885 97.4805 2.07227C97.2572 1.98568 96.9974 1.94238 96.7012 1.94238C96.4004 1.94238 96.1338 1.99023 95.9014 2.08594C95.6735 2.17708 95.4798 2.31152 95.3203 2.48926C95.1289 2.71257 94.9854 3.00195 94.8896 3.35742C94.7985 3.70833 94.7529 4.11621 94.7529 4.58105V6.24902C94.7529 6.36296 94.7529 6.47689 94.7529 6.59082C94.7529 6.70475 94.7529 6.82096 94.7529 6.93945ZM98.6562 7.45898V6.05078C98.6562 5.98242 98.6562 5.85254 98.6562 5.66113C98.6562 5.46517 98.6562 5.30339 98.6562 5.17578L94.7871 8.13574C94.8281 8.46842 94.901 8.76237 95.0059 9.01758C95.1107 9.26823 95.2474 9.47559 95.416 9.63965C95.571 9.7946 95.7578 9.91309 95.9766 9.99512C96.1953 10.0726 96.4414 10.1113 96.7148 10.1113C97.002 10.1113 97.2572 10.068 97.4805 9.98145C97.7038 9.89486 97.8929 9.76953 98.0479 9.60547C98.2575 9.38216 98.4102 9.09049 98.5059 8.73047C98.6061 8.37044 98.6562 7.94661 98.6562 7.45898ZM108.192 11L101.671 11V10.0908L104.932 6.46777C105.223 6.14421 105.467 5.8571 105.663 5.60645C105.859 5.35579 106.016 5.12337 106.135 4.90918C106.253 4.69954 106.338 4.5013 106.388 4.31445C106.438 4.12305 106.463 3.92708 106.463 3.72656C106.463 3.48047 106.422 3.25033 106.34 3.03613C106.262 2.81738 106.148 2.62826 105.998 2.46875C105.843 2.30924 105.656 2.18392 105.438 2.09277C105.223 1.99707 104.979 1.94922 104.706 1.94922C104.373 1.94922 104.084 1.99707 103.838 2.09277C103.596 2.18848 103.396 2.32292 103.236 2.49609C103.072 2.67383 102.949 2.88802 102.867 3.13867C102.79 3.38932 102.751 3.6696 102.751 3.97949L101.479 3.97949C101.479 3.56022 101.552 3.16602 101.698 2.79687C101.844 2.42318 102.056 2.09733 102.334 1.81934C102.607 1.54134 102.942 1.32031 103.339 1.15625C103.74 0.992187 104.196 0.910156 104.706 0.910156C105.175 0.910156 105.597 0.980794 105.971 1.12207C106.349 1.25879 106.668 1.4502 106.928 1.69629C107.188 1.94238 107.386 2.23405 107.522 2.57129C107.664 2.90853 107.734 3.27539 107.734 3.67187C107.734 3.9681 107.684 4.26204 107.584 4.55371C107.484 4.84082 107.349 5.12565 107.181 5.4082C107.007 5.69076 106.807 5.97103 106.579 6.24902C106.356 6.52246 106.119 6.7959 105.868 7.06934L103.195 9.96777L108.192 9.96777V11ZM111.973 5.41504H112.875C113.194 5.41504 113.474 5.37174 113.716 5.28516C113.962 5.19857 114.169 5.08008 114.338 4.92969C114.502 4.7793 114.627 4.59928 114.714 4.38965C114.8 4.18001 114.844 3.94987 114.844 3.69922C114.844 3.40299 114.805 3.14551 114.728 2.92676C114.65 2.70345 114.536 2.51888 114.386 2.37305C114.24 2.23177 114.058 2.12695 113.839 2.05859C113.625 1.98568 113.379 1.94922 113.101 1.94922C112.832 1.94922 112.586 1.99023 112.362 2.07227C112.144 2.14974 111.957 2.26367 111.802 2.41406C111.642 2.56445 111.519 2.74447 111.433 2.9541C111.346 3.16374 111.303 3.39844 111.303 3.6582H110.031C110.031 3.27995 110.104 2.92448 110.25 2.5918C110.4 2.25456 110.61 1.96061 110.879 1.70996C111.148 1.46387 111.469 1.27018 111.843 1.12891C112.221 0.983073 112.64 0.910156 113.101 0.910156C113.547 0.910156 113.955 0.97168 114.324 1.09473C114.693 1.21322 115.01 1.39095 115.274 1.62793C115.539 1.86491 115.744 2.15885 115.89 2.50977C116.035 2.86068 116.108 3.26628 116.108 3.72656C116.108 3.91797 116.079 4.11621 116.02 4.32129C115.96 4.52637 115.869 4.72461 115.746 4.91602C115.623 5.11198 115.464 5.29655 115.268 5.46973C115.076 5.63835 114.846 5.77962 114.577 5.89355C114.901 5.99837 115.17 6.13509 115.384 6.30371C115.603 6.47233 115.778 6.66146 115.91 6.87109C116.038 7.08073 116.127 7.30176 116.177 7.53418C116.231 7.7666 116.259 7.99674 116.259 8.22461C116.259 8.68945 116.179 9.10189 116.02 9.46191C115.86 9.82194 115.639 10.125 115.356 10.3711C115.074 10.6217 114.739 10.8132 114.352 10.9453C113.969 11.0729 113.554 11.1367 113.107 11.1367C112.67 11.1367 112.257 11.0752 111.87 10.9521C111.487 10.8291 111.155 10.6491 110.872 10.4121C110.59 10.1751 110.364 9.88574 110.195 9.54395C110.031 9.20215 109.949 8.8125 109.949 8.375H111.214C111.214 8.63477 111.257 8.87174 111.344 9.08594C111.435 9.30013 111.562 9.48242 111.727 9.63281C111.891 9.7832 112.089 9.89941 112.321 9.98145C112.558 10.0635 112.82 10.1045 113.107 10.1045C113.395 10.1045 113.654 10.068 113.887 9.99512C114.119 9.91764 114.317 9.80143 114.481 9.64648C114.646 9.49154 114.771 9.30013 114.857 9.07227C114.949 8.83984 114.994 8.56641 114.994 8.25195C114.994 7.94206 114.942 7.67546 114.837 7.45215C114.737 7.22428 114.595 7.03516 114.413 6.88477C114.226 6.73437 114.001 6.62272 113.736 6.5498C113.477 6.47689 113.189 6.44043 112.875 6.44043H111.973V5.41504Z" fill="#F0000C"/>
</svg>
