<svg width="11" height="117" viewBox="0 0 11 117" fill="none" xmlns="http://www.w3.org/2000/svg">
<path d="M3.25745 4.83301L3.25745 3.02832L0.454712 2.48144L0.454712 1.50391L3.25745 2.05078L3.25745 0.416992L4.19397 0.416992L4.19397 2.22852L6.61389 2.70019L6.61389 0.936523L7.56409 0.936523L7.56409 2.88477L10.4078 3.44531L10.4078 4.42285L7.56409 3.8623L7.56409 5.66699L10.4078 6.22754L10.4078 7.20508L7.56409 6.64453L7.56409 8.0459L6.61389 8.0459L6.61389 6.45996L4.19397 5.98828L4.19397 7.5332L3.25745 7.5332L3.25745 5.81055L0.454712 5.26367L0.454712 4.28613L3.25745 4.83301ZM4.19397 3.20605L4.19397 5.01074L6.61389 5.48242L6.61389 3.67773L4.19397 3.20605ZM4.4469 10.9785L0.454711 10.9785L0.454711 9.71387L10.4078 9.71387L10.4078 12.9404C10.3987 13.387 10.3281 13.8086 10.1959 14.2051C10.0638 14.6061 9.87235 14.957 9.6217 15.2578C9.37105 15.5586 9.06116 15.7956 8.69202 15.9687C8.32288 16.1465 7.89905 16.2354 7.42053 16.2354C6.94202 16.2354 6.51819 16.1465 6.14905 15.9687C5.78446 15.7956 5.47685 15.5586 5.2262 15.2578C4.97554 14.957 4.78414 14.6061 4.65198 14.2051C4.51982 13.8086 4.45146 13.387 4.4469 12.9404L4.4469 10.9785ZM5.48596 10.9785L5.48596 12.9404C5.49052 13.2321 5.53609 13.501 5.62268 13.7471C5.71383 13.9932 5.84143 14.2074 6.00549 14.3896C6.16956 14.5719 6.3678 14.7132 6.60022 14.8135C6.8372 14.9183 7.10608 14.9707 7.40686 14.9707C7.70764 14.9707 7.9788 14.9183 8.22034 14.8135C8.46187 14.7132 8.66695 14.5742 8.83557 14.3965C9.00419 14.2142 9.13407 13.9977 9.22522 13.7471C9.31636 13.501 9.36422 13.2321 9.36877 12.9404L9.36877 10.9785L5.48596 10.9785ZM7.98791 22.8525C7.98791 23.085 7.97196 23.3265 7.94006 23.5771C7.90816 23.8324 7.86487 24.0238 7.81018 24.1514L6.57287 23.9805C6.62756 23.7344 6.6663 23.4997 6.68909 23.2764C6.71643 23.0576 6.7301 22.8275 6.7301 22.5859C6.7301 22.276 6.69136 21.9958 6.61389 21.7451C6.54097 21.4945 6.4316 21.2757 6.28577 21.0889C6.15816 20.9202 6.00093 20.7721 5.81409 20.6445C5.63179 20.5215 5.42672 20.4189 5.19885 20.3369L0.454711 20.3369L0.454711 19.0654L7.8512 19.0654L7.8512 20.2686L6.85998 20.3232L6.67541 20.3301C7.08101 20.6309 7.40002 20.9909 7.63245 21.4102C7.86942 21.834 7.98791 22.3148 7.98791 22.8525ZM0.317992 29.6816C0.317992 29.1621 0.406859 28.6836 0.584593 28.2461C0.762328 27.8132 1.0107 27.4417 1.32971 27.1318C1.64872 26.8219 2.02698 26.5804 2.46448 26.4072C2.90198 26.234 3.37821 26.1475 3.89319 26.1475L4.1803 26.1475C4.7773 26.1475 5.31051 26.2432 5.77991 26.4346C6.25386 26.626 6.65491 26.8812 6.98303 27.2002C7.3066 27.5146 7.55497 27.8724 7.72815 28.2734C7.90133 28.679 7.98791 29.0937 7.98791 29.5176C7.98791 30.0508 7.89449 30.5156 7.70764 30.9121C7.52535 31.3132 7.27242 31.6458 6.94885 31.9102C6.62073 32.1745 6.23563 32.3704 5.79358 32.498C5.35152 32.6302 4.873 32.6963 4.35803 32.6963L3.79065 32.6963L3.79065 27.4121L3.7428 27.4121C3.38277 27.444 3.06604 27.5146 2.7926 27.624C2.51916 27.738 2.27763 27.8929 2.06799 28.0889C1.84468 28.2894 1.66923 28.5309 1.54162 28.8135C1.41402 29.096 1.35022 29.4082 1.35022 29.75C1.35022 30.2012 1.44136 30.6022 1.62366 30.9531C1.80595 31.304 2.04748 31.5957 2.34827 31.8281L1.7467 32.6006C1.373 32.3545 1.04032 31.9854 0.748656 31.4932C0.461546 31.0055 0.317992 30.4017 0.317992 29.6816ZM6.94885 29.5176C6.94885 29.2624 6.901 29.0208 6.8053 28.793C6.71415 28.5651 6.57971 28.36 6.40198 28.1777C6.21968 27.9954 5.99638 27.8405 5.73205 27.7129C5.47229 27.5898 5.17151 27.5033 4.82971 27.4531L4.82971 31.4316L4.89123 31.4316C5.1191 31.4316 5.36291 31.3883 5.62268 31.3018C5.887 31.2152 6.11487 31.0944 6.30627 30.9395C6.49768 30.7845 6.65263 30.5885 6.77112 30.3516C6.88961 30.1191 6.94885 29.8411 6.94885 29.5176ZM7.85119 35.4033L7.15393 35.4375C7.41369 35.5879 7.61649 35.7839 7.76233 36.0254C7.90816 36.2715 7.98336 36.5677 7.98791 36.9141C7.98791 37.11 7.96513 37.2855 7.91955 37.4404C7.87854 37.5999 7.81701 37.7389 7.73498 37.8574C7.67118 37.944 7.59371 38.0215 7.50256 38.0898C7.41142 38.1628 7.30888 38.2243 7.19494 38.2744C7.29976 38.3382 7.39774 38.4134 7.48889 38.5C7.58004 38.5866 7.65979 38.68 7.72815 38.7803C7.80562 38.9079 7.86715 39.0492 7.91272 39.2041C7.95829 39.3636 7.98336 39.5368 7.98791 39.7236C7.98791 39.9788 7.94918 40.209 7.8717 40.4141C7.79879 40.6191 7.68941 40.7923 7.54358 40.9336C7.37951 41.0885 7.16532 41.207 6.901 41.2891C6.64123 41.3711 6.33362 41.4121 5.97815 41.4121L0.45471 41.4121L0.45471 40.209L5.99182 40.209C6.14677 40.209 6.28349 40.1908 6.40198 40.1543C6.52047 40.1178 6.61845 40.0654 6.69592 39.9971C6.76884 39.9242 6.82353 39.833 6.85998 39.7236C6.89644 39.6188 6.91467 39.4958 6.91467 39.3545C6.91467 39.2041 6.89416 39.0742 6.85315 38.9648C6.81213 38.8555 6.75744 38.7643 6.68909 38.6914C6.61617 38.6185 6.53186 38.5615 6.43616 38.5205C6.34501 38.4795 6.24247 38.4521 6.12854 38.4385C6.10575 38.4385 6.08297 38.4385 6.06018 38.4385C6.04195 38.4385 6.01916 38.4385 5.99182 38.4385L0.45471 38.4385L0.45471 37.2354L5.99866 37.2354C6.1536 37.2354 6.29032 37.2171 6.40881 37.1807C6.5273 37.1488 6.62528 37.0964 6.70276 37.0234C6.77567 36.9551 6.82808 36.8685 6.85998 36.7637C6.89644 36.6634 6.91467 36.5449 6.91467 36.4082C6.91467 36.2578 6.89644 36.1257 6.85998 36.0117C6.82808 35.9023 6.78023 35.8089 6.71643 35.7314C6.6663 35.6722 6.60933 35.6198 6.54553 35.5742C6.48173 35.5332 6.41337 35.499 6.34045 35.4717L0.45471 35.4717L0.45471 34.2686L7.85119 34.2686L7.85119 35.4033ZM7.85119 43.4287L7.85119 47.209L1.54846 47.209L1.54846 49.6221L0.45471 49.6221L0.45471 43.4287L1.54846 43.4287L1.54846 45.9443L6.75061 45.9443L6.75061 43.4287L7.85119 43.4287ZM9.7926 45.7803C9.90198 45.7803 10.0045 45.7962 10.1002 45.8281C10.1959 45.8646 10.278 45.9193 10.3463 45.9922C10.4056 46.0514 10.4511 46.1266 10.483 46.2178C10.5195 46.3135 10.5377 46.4206 10.5377 46.5391C10.5377 46.6576 10.5195 46.7624 10.483 46.8535C10.4511 46.9447 10.4056 47.0199 10.3463 47.0791C10.2825 47.152 10.2028 47.2067 10.1071 47.2432C10.0114 47.2796 9.90653 47.2979 9.7926 47.2979C9.58752 47.2979 9.41662 47.234 9.27991 47.1064C9.14319 46.9788 9.07483 46.7897 9.07483 46.5391C9.07483 46.2839 9.14319 46.0924 9.27991 45.9648C9.41662 45.8418 9.58752 45.7803 9.7926 45.7803ZM4.22131 51.2832C4.75451 51.2832 5.24898 51.3607 5.70471 51.5156C6.165 51.6706 6.56376 51.8939 6.901 52.1855C7.23824 52.4727 7.50256 52.8236 7.69397 53.2383C7.88993 53.653 7.98791 54.1201 7.98791 54.6396C7.98791 55.1637 7.88993 55.6331 7.69397 56.0479C7.50256 56.4671 7.23824 56.8226 6.901 57.1143C6.56376 57.4014 6.165 57.6224 5.70471 57.7773C5.24898 57.9323 4.75451 58.0098 4.22131 58.0098L4.07092 58.0098C3.53772 58.0098 3.04325 57.9323 2.58752 57.7773C2.13179 57.6224 1.73531 57.4014 1.39807 57.1143C1.06083 56.8226 0.796506 56.4694 0.6051 56.0547C0.413694 55.64 0.317991 55.1729 0.317991 54.6533C0.317991 54.1292 0.413694 53.6576 0.6051 53.2383C0.796506 52.8236 1.06083 52.4727 1.39807 52.1855C1.73531 51.8939 2.13179 51.6706 2.58752 51.5156C3.04325 51.3607 3.53772 51.2832 4.07092 51.2832L4.22131 51.2832ZM4.07092 52.5479C3.70634 52.5479 3.3577 52.5911 3.02502 52.6777C2.6969 52.7643 2.40751 52.8965 2.15686 53.0742C1.90621 53.2474 1.70796 53.4661 1.56213 53.7305C1.4163 53.9948 1.34338 54.3024 1.34338 54.6533C1.34338 54.9997 1.4163 55.3027 1.56213 55.5625C1.70796 55.8268 1.90621 56.0479 2.15686 56.2256C2.40751 56.3988 2.6969 56.5286 3.02502 56.6152C3.3577 56.7018 3.70634 56.7451 4.07092 56.7451L4.22131 56.7451C4.58134 56.7451 4.92541 56.6995 5.25354 56.6084C5.58622 56.5218 5.87789 56.3919 6.12854 56.2187C6.37919 56.041 6.57743 55.82 6.72326 55.5557C6.87365 55.2959 6.94885 54.9906 6.94885 54.6396C6.94885 54.2887 6.87365 53.9834 6.72326 53.7236C6.57743 53.4639 6.37919 53.2474 6.12854 53.0742C5.87789 52.8965 5.58622 52.7643 5.25354 52.6777C4.92541 52.5911 4.58134 52.5479 4.22131 52.5479L4.07092 52.5479ZM4.4469 61.4277L0.454709 61.4277L0.454709 60.1631L10.4078 60.1631L10.4078 63.3896C10.3987 63.8363 10.3281 64.2578 10.1959 64.6543C10.0638 65.0553 9.87235 65.4062 9.6217 65.707C9.37105 66.0078 9.06115 66.2448 8.69201 66.418C8.32287 66.5957 7.89904 66.6846 7.42053 66.6846C6.94201 66.6846 6.51819 66.5957 6.14904 66.418C5.78446 66.2448 5.47684 66.0078 5.22619 65.707C4.97554 65.4062 4.78414 65.0553 4.65197 64.6543C4.51981 64.2578 4.45145 63.8363 4.4469 63.3896L4.4469 61.4277ZM5.48596 61.4277L5.48596 63.3896C5.49052 63.6813 5.53609 63.9502 5.62268 64.1963C5.71382 64.4424 5.84143 64.6566 6.00549 64.8389C6.16955 65.0212 6.3678 65.1624 6.60022 65.2627C6.8372 65.3675 7.10608 65.4199 7.40686 65.4199C7.70764 65.4199 7.9788 65.3675 8.22033 65.2627C8.46187 65.1624 8.66695 65.0234 8.83557 64.8457C9.00419 64.6634 9.13407 64.4469 9.22522 64.1963C9.31636 63.9502 9.36421 63.6813 9.36877 63.3896L9.36877 61.4277L5.48596 61.4277ZM3.03186 73.2061L3.03186 69.8838L0.454709 69.084L0.454709 67.8193L10.4078 71.0322L10.4078 72.0918L0.454709 75.25L0.454709 73.9922L3.03186 73.2061ZM4.13244 70.2256L4.13244 72.8711L8.45276 71.5586L4.13244 70.2256ZM10.4078 78.251L5.43127 79.8711L10.4078 81.6211L10.4078 83.1934L0.454708 83.1934L0.454708 81.9629L4.42639 81.9629L8.58264 82.0654L3.22326 80.2266L3.22326 79.502L8.43908 77.8135L4.42639 77.916L0.454709 77.916L0.454709 76.6855L10.4078 76.6855L10.4078 78.251ZM0.454708 91.376L0.454708 84.8545L1.36389 84.8545L4.98693 88.1152C5.3105 88.4069 5.59761 88.6507 5.84826 88.8467C6.09891 89.0426 6.33134 89.1999 6.54553 89.3184C6.75516 89.4368 6.95341 89.5212 7.14025 89.5713C7.33166 89.6214 7.52762 89.6465 7.72815 89.6465C7.97424 89.6465 8.20438 89.6055 8.41858 89.5234C8.63733 89.446 8.82645 89.332 8.98596 89.1816C9.14546 89.0267 9.27079 88.8398 9.36193 88.6211C9.45764 88.4069 9.50549 88.1631 9.50549 87.8896C9.50549 87.557 9.45764 87.2676 9.36193 87.0215C9.26623 86.7799 9.13179 86.5794 8.95861 86.4199C8.78088 86.2559 8.56669 86.1328 8.31604 86.0508C8.06539 85.9733 7.78511 85.9346 7.47522 85.9346L7.47522 84.6631C7.89449 84.6631 8.28869 84.736 8.65783 84.8818C9.03153 85.0277 9.35738 85.2396 9.63537 85.5176C9.91337 85.791 10.1344 86.126 10.2985 86.5225C10.4625 86.9235 10.5446 87.3792 10.5446 87.8896C10.5446 88.359 10.4739 88.7806 10.3326 89.1543C10.1959 89.5326 10.0045 89.8516 9.75842 90.1113C9.51233 90.3711 9.22066 90.5693 8.88342 90.7061C8.54618 90.8473 8.17932 90.918 7.78283 90.918C7.48661 90.918 7.19266 90.8678 6.901 90.7676C6.61389 90.6673 6.32906 90.5329 6.0465 90.3643C5.76395 90.1911 5.48368 89.9906 5.20568 89.7627C4.93225 89.5394 4.65881 89.3024 4.38537 89.0518L1.48693 86.3789L1.48693 91.376L0.454708 91.376ZM4.26232 99.9277C3.62886 99.9277 3.06604 99.8548 2.57385 99.709C2.08622 99.5632 1.67606 99.3535 1.34338 99.0801C1.00614 98.8066 0.750932 98.4717 0.577755 98.0752C0.404577 97.6787 0.317989 97.2253 0.317989 96.7148C0.317989 96.209 0.402299 95.7555 0.570919 95.3545C0.744096 94.9534 1.00158 94.6139 1.34338 94.3359C1.67606 94.0579 2.08622 93.846 2.57385 93.7002C3.06604 93.5544 3.62886 93.4814 4.26233 93.4814L6.59338 93.4814C7.22684 93.4814 7.78739 93.5544 8.27502 93.7002C8.76721 93.846 9.18192 94.0579 9.51916 94.3359C9.8564 94.6094 10.1116 94.9443 10.2848 95.3408C10.4625 95.7419 10.5514 96.1953 10.5514 96.7012C10.5514 97.2116 10.4625 97.665 10.2848 98.0615C10.1116 98.4626 9.8564 98.8021 9.51916 99.0801C9.18192 99.3535 8.76721 99.5632 8.27502 99.709C7.78739 99.8548 7.22684 99.9277 6.59338 99.9277L4.26232 99.9277ZM4.51525 94.7529L7.48889 98.6289C7.81701 98.5924 8.1064 98.5264 8.35705 98.4307C8.61226 98.3395 8.82417 98.2142 8.99279 98.0547C9.16597 97.8997 9.29585 97.7083 9.38244 97.4805C9.46903 97.2572 9.51232 96.9974 9.51232 96.7012C9.51232 96.4004 9.46447 96.1338 9.36877 95.9014C9.27762 95.6735 9.14318 95.4798 8.96545 95.3203C8.74214 95.1289 8.45275 94.9854 8.09729 94.8896C7.74637 94.7985 7.3385 94.7529 6.87365 94.7529L5.20568 94.7529C5.09175 94.7529 4.97782 94.7529 4.86389 94.7529C4.74996 94.7529 4.63374 94.7529 4.51525 94.7529ZM3.99572 98.6562L5.40393 98.6562C5.47229 98.6562 5.60217 98.6562 5.79357 98.6562C5.98954 98.6562 6.15132 98.6562 6.27893 98.6562L3.31897 94.7871C2.98628 94.8281 2.69234 94.901 2.43713 95.0059C2.18648 95.1107 1.97912 95.2474 1.81506 95.416C1.66011 95.571 1.54162 95.7578 1.45959 95.9766C1.38212 96.1953 1.34338 96.4414 1.34338 96.7148C1.34338 97.002 1.38667 97.2572 1.47326 97.4805C1.55985 97.7038 1.68518 97.8929 1.84924 98.0479C2.07255 98.2575 2.36421 98.4102 2.72424 98.5059C3.08426 98.6061 3.50809 98.6562 3.99572 98.6562ZM0.454707 108.192L0.454707 101.671L1.36389 101.671L4.98693 104.932C5.3105 105.223 5.59761 105.467 5.84826 105.663C6.09891 105.859 6.33133 106.016 6.54553 106.135C6.75516 106.253 6.95341 106.338 7.14025 106.388C7.33166 106.438 7.52762 106.463 7.72814 106.463C7.97424 106.463 8.20438 106.422 8.41857 106.34C8.63732 106.262 8.82645 106.148 8.98596 105.998C9.14546 105.843 9.27079 105.656 9.36193 105.437C9.45764 105.223 9.50549 104.979 9.50549 104.706C9.50549 104.373 9.45764 104.084 9.36193 103.838C9.26623 103.596 9.13179 103.396 8.95861 103.236C8.78088 103.072 8.56669 102.949 8.31604 102.867C8.06538 102.79 7.78511 102.751 7.47522 102.751L7.47522 101.479C7.89449 101.479 8.28869 101.552 8.65783 101.698C9.03153 101.844 9.35738 102.056 9.63537 102.334C9.91337 102.607 10.1344 102.942 10.2985 103.339C10.4625 103.74 10.5446 104.196 10.5446 104.706C10.5446 105.175 10.4739 105.597 10.3326 105.971C10.1959 106.349 10.0045 106.668 9.75842 106.928C9.51232 107.187 9.22066 107.386 8.88342 107.522C8.54618 107.664 8.17932 107.734 7.78283 107.734C7.48661 107.734 7.19266 107.684 6.901 107.584C6.61389 107.484 6.32906 107.349 6.0465 107.181C5.76395 107.007 5.48368 106.807 5.20568 106.579C4.93225 106.356 4.65881 106.119 4.38537 105.868L1.48693 103.195L1.48693 108.192L0.454707 108.192ZM6.03967 111.973L6.03967 112.875C6.03967 113.194 6.08296 113.474 6.16955 113.716C6.25614 113.962 6.37463 114.169 6.52502 114.338C6.67541 114.502 6.85542 114.627 7.06506 114.714C7.27469 114.8 7.50484 114.844 7.75549 114.844C8.05171 114.844 8.3092 114.805 8.52795 114.728C8.75126 114.65 8.93583 114.536 9.08166 114.386C9.22294 114.24 9.32775 114.058 9.39611 113.839C9.46903 113.625 9.50549 113.379 9.50549 113.101C9.50549 112.832 9.46447 112.586 9.38244 112.362C9.30497 112.144 9.19104 111.957 9.04064 111.802C8.89025 111.642 8.71024 111.519 8.50061 111.433C8.29097 111.346 8.05627 111.303 7.7965 111.303L7.7965 110.031C8.17476 110.031 8.53023 110.104 8.86291 110.25C9.20015 110.4 9.4941 110.61 9.74475 110.879C9.99084 111.148 10.1845 111.469 10.3258 111.843C10.4716 112.221 10.5446 112.64 10.5446 113.101C10.5446 113.547 10.483 113.955 10.36 114.324C10.2415 114.693 10.0638 115.01 9.82678 115.274C9.5898 115.539 9.29585 115.744 8.94494 115.89C8.59403 116.035 8.18843 116.108 7.72814 116.108C7.53674 116.108 7.3385 116.079 7.13342 116.02C6.92834 115.96 6.7301 115.869 6.53869 115.746C6.34273 115.623 6.15816 115.464 5.98498 115.268C5.81636 115.076 5.67508 114.846 5.56115 114.577C5.45633 114.901 5.31962 115.17 5.151 115.384C4.98238 115.603 4.79325 115.778 4.58361 115.91C4.37398 116.038 4.15295 116.127 3.92053 116.177C3.68811 116.231 3.45796 116.259 3.2301 116.259C2.76525 116.259 2.35282 116.179 1.99279 116.02C1.63277 115.86 1.32971 115.639 1.08361 115.356C0.832962 115.074 0.641556 114.739 0.509394 114.352C0.38179 113.969 0.317988 113.554 0.317988 113.107C0.317988 112.67 0.379512 112.257 0.502559 111.87C0.625605 111.487 0.805619 111.155 1.0426 110.872C1.27958 110.59 1.56896 110.364 1.91076 110.195C2.25256 110.031 2.64221 109.949 3.07971 109.949L3.07971 111.214C2.81994 111.214 2.58296 111.257 2.36877 111.344C2.15458 111.435 1.97229 111.562 1.82189 111.727C1.6715 111.891 1.55529 112.089 1.47326 112.321C1.39123 112.558 1.35021 112.82 1.35021 113.107C1.35021 113.395 1.38667 113.654 1.45959 113.887C1.53706 114.119 1.65327 114.317 1.80822 114.481C1.96317 114.646 2.15458 114.771 2.38244 114.857C2.61486 114.949 2.8883 114.994 3.20275 114.994C3.51265 114.994 3.77925 114.942 4.00256 114.837C4.23042 114.737 4.41955 114.595 4.56994 114.413C4.72033 114.226 4.83199 114.001 4.9049 113.736C4.97782 113.477 5.01428 113.189 5.01428 112.875L5.01428 111.973L6.03967 111.973Z" fill="#F0000C"/>
</svg>
