<svg width="27" height="27" viewBox="0 0 27 27" fill="none" xmlns="http://www.w3.org/2000/svg">
<g clip-path="url(#clip0_148_1322)">
<path d="M18.5607 0.82373H8.43348C4.2306 0.82373 0.823486 4.23084 0.823486 8.43372V18.5609C0.823486 22.7638 4.2306 26.1709 8.43348 26.1709H18.5607C22.7636 26.1709 26.1707 22.7638 26.1707 18.5609V8.43372C26.1707 4.23084 22.7636 0.82373 18.5607 0.82373Z" stroke="#F0000C" stroke-width="2.83" stroke-miterlimit="10"/>
<path d="M19.2322 13.497C19.2322 14.599 18.9055 15.6762 18.2933 16.5925C17.6811 17.5087 16.8109 18.2229 15.7928 18.6446C14.7747 19.0663 13.6544 19.1766 12.5736 18.9616C11.4928 18.7467 10.5 18.216 9.72076 17.4368C8.94154 16.6576 8.41092 15.6648 8.19593 14.584C7.98095 13.5032 8.09127 12.3829 8.51298 11.3648C8.93469 10.3467 9.64883 9.47652 10.5651 8.8643C11.4814 8.25207 12.5586 7.92529 13.6606 7.92529C15.1383 7.92529 16.5554 8.51231 17.6003 9.55721C18.6452 10.6021 19.2322 12.0193 19.2322 13.497Z" stroke="#F0000C" stroke-width="2.83" stroke-miterlimit="10"/>
<path d="M22.2517 6.59392C22.2529 6.91207 22.1596 7.2234 21.9835 7.48842C21.8075 7.75343 21.5567 7.96019 21.263 8.08248C20.9693 8.20476 20.6458 8.23706 20.3337 8.17528C20.0216 8.11349 19.735 7.96041 19.51 7.73544C19.285 7.51047 19.1319 7.22375 19.0701 6.91166C19.0083 6.59956 19.0407 6.27615 19.1629 5.98243C19.2852 5.68872 19.4919 5.43794 19.757 5.2619C20.022 5.08587 20.3333 4.99251 20.6515 4.99366C21.0759 4.99366 21.4829 5.16226 21.7831 5.46237C22.0832 5.76248 22.2517 6.16951 22.2517 6.59392Z" stroke="#F0000C" stroke-width="1.8" stroke-miterlimit="10"/>
</g>
<defs>
<clipPath id="clip0_148_1322">
<rect width="27" height="27" fill="white"/>
</clipPath>
</defs>
</svg>
