<svg width="10" height="22" viewBox="0 0 10 22" fill="none" xmlns="http://www.w3.org/2000/svg">
<g clip-path="url(#clip0_148_1320)">
<path d="M9.81811 0.0809364V3.51362C9.67272 3.55913 9.52345 3.59084 9.37224 3.60835C8.87731 3.60835 8.38241 3.60835 7.88749 3.60835C6.95115 3.60835 6.54983 4.03236 6.51416 4.99315C6.51416 5.49385 6.51416 5.99905 6.51416 6.49974C6.51416 6.80648 6.62116 6.87865 6.8976 6.87414C7.69572 6.87414 8.49383 6.87414 9.28749 6.87414C9.68878 6.87414 9.79133 7.00946 9.73337 7.39287C9.63527 8.24992 9.5595 9.11147 9.48371 9.97303C9.42574 10.6496 9.43465 10.6451 8.75246 10.6451H6.57659V20.668C6.57659 21.2274 6.53198 21.2725 5.99693 21.2725C4.9402 21.2725 3.88348 21.2725 2.8223 21.2725C2.14902 21.2725 2.14461 21.2725 2.14461 20.5688C2.14461 17.4293 2.14461 14.2898 2.14461 11.1503C2.14461 10.582 2.14458 10.573 1.55602 10.582H0.32094C0.0846255 10.582 -0.0268522 10.4963 -0.0223934 10.2392C-0.0223934 9.2468 -0.0223934 8.25894 -0.0223934 7.26657C-0.0223934 7.00946 0.0801667 6.92375 0.32094 6.92827C0.766815 6.92827 1.21269 6.92827 1.65857 6.92827C2.10444 6.92827 2.15794 6.78843 2.15348 6.41404C2.15348 5.51189 2.13122 4.60974 2.18919 3.70759C2.21824 2.76976 2.59141 1.87648 3.236 1.20185C3.8806 0.527217 4.75041 0.119578 5.67591 0.058383C6.96003 -0.0408537 8.25755 0.00425493 9.54613 -0.00927734C9.6422 0.000444456 9.73501 0.0312292 9.81811 0.0809364Z" fill="#F0000C"/>
</g>
<defs>
<clipPath id="clip0_148_1320">
<rect width="9.81818" height="21.2727" fill="white"/>
</clipPath>
</defs>
</svg>
