<svg width="27" height="27" viewBox="0 0 27 27" fill="none" xmlns="http://www.w3.org/2000/svg">
<g clip-path="url(#clip0_109_595)">
<path d="M21.3751 1.125H5.62512C4.13383 1.12679 2.70412 1.71999 1.64962 2.7745C0.595114 3.829 0.00190841 5.25871 0.00012207 6.75L0.00012207 20.25C0.00190841 21.7413 0.595114 23.171 1.64962 24.2255C2.70412 25.28 4.13383 25.8732 5.62512 25.875H21.3751C22.8664 25.8732 24.2961 25.28 25.3506 24.2255C26.4051 23.171 26.9983 21.7413 27.0001 20.25V6.75C26.9983 5.25871 26.4051 3.829 25.3506 2.7745C24.2961 1.71999 22.8664 1.12679 21.3751 1.125ZM5.62512 3.375H21.3751C22.0488 3.37633 22.7066 3.5792 23.2639 3.95753C23.8213 4.33585 24.2527 4.87232 24.5026 5.49788L15.8874 14.1142C15.2534 14.7457 14.395 15.1003 13.5001 15.1003C12.6053 15.1003 11.7469 14.7457 11.1129 14.1142L2.49762 5.49788C2.74754 4.87232 3.17894 4.33585 3.7363 3.95753C4.29366 3.5792 4.95149 3.37633 5.62512 3.375ZM21.3751 23.625H5.62512C4.73002 23.625 3.87157 23.2694 3.23864 22.6365C2.6057 22.0036 2.25012 21.1451 2.25012 20.25V8.4375L9.52212 15.705C10.5781 16.7583 12.0087 17.3498 13.5001 17.3498C14.9916 17.3498 16.4222 16.7583 17.4781 15.705L24.7501 8.4375V20.25C24.7501 21.1451 24.3945 22.0036 23.7616 22.6365C23.1287 23.2694 22.2702 23.625 21.3751 23.625Z" fill="#F0000C"/>
</g>
<defs>
<clipPath id="clip0_109_595">
<rect width="27" height="27" fill="white"/>
</clipPath>
</defs>
</svg>
