<svg width="25" height="25" viewBox="0 0 25 25" fill="none" xmlns="http://www.w3.org/2000/svg">
<g clip-path="url(#clip0_148_1326)">
<path d="M0.513044 12.2754C0.513044 8.95546 0.513044 5.63207 0.513044 2.30527C0.49895 1.94207 0.597547 1.5834 0.79526 1.27848C0.954343 1.04416 1.16976 0.853647 1.4217 0.724458C1.67363 0.59527 1.95397 0.531558 2.23696 0.539187H22.3444C22.7376 0.536312 23.1192 0.67214 23.4222 0.922818C23.7253 1.1735 23.9304 1.523 24.0016 1.90995C24.0229 2.04231 24.0315 2.17641 24.0273 2.3104C24.0273 8.96401 24.0273 15.6159 24.0273 22.2661C24.0424 22.4994 24.0086 22.7333 23.9281 22.9528C23.8477 23.1723 23.7223 23.3725 23.56 23.5407C23.3977 23.7089 23.2021 23.8413 22.9857 23.9295C22.7693 24.0177 22.5369 24.0596 22.3033 24.0527H2.22676C2.00237 24.0582 1.77916 24.0185 1.57044 23.9359C1.36173 23.8533 1.17174 23.7295 1.01184 23.5719C0.851935 23.4143 0.725374 23.2261 0.639684 23.0185C0.553994 22.8109 0.510911 22.5882 0.513044 22.3636C0.513044 21.075 0.513044 19.7967 0.513044 18.4824V12.2754Z" stroke="#F0000C" stroke-width="2" stroke-miterlimit="10"/>
<path d="M13.0423 10.8431V10.6736C13.0423 10.2783 13.0423 9.88302 13.0423 9.4877C13.0423 9.34395 12.9962 9.29775 12.8576 9.30288C11.8571 9.30288 10.8515 9.30288 9.85103 9.30288C9.7125 9.30288 9.66119 9.33882 9.66119 9.48257C9.66119 13.1243 9.66119 16.7642 9.66119 20.4025C9.66119 20.5462 9.70223 20.5873 9.84589 20.5873H12.9705C13.1809 20.5873 13.1809 20.5873 13.1809 20.3768C13.1809 18.5697 13.1809 16.7831 13.1809 14.9554C13.1938 14.4932 13.2453 14.033 13.3348 13.5795C13.3949 13.1786 13.5992 12.8134 13.9094 12.5527C14.169 12.3528 14.471 12.2151 14.7921 12.1502C15.1131 12.0852 15.4448 12.0947 15.7617 12.1779C16.0561 12.2415 16.3243 12.3928 16.5313 12.6117C16.7382 12.8307 16.8742 13.1072 16.9212 13.4049C17.0264 13.8887 17.0728 14.3834 17.0597 14.8784C17.0597 16.7163 17.0597 18.5491 17.0597 20.3871C17.0597 20.5257 17.0956 20.5771 17.2393 20.5771H20.4409C20.5845 20.5771 20.6102 20.5257 20.6102 20.3974C20.6102 18.9342 20.6102 17.471 20.6102 16.0078C20.6102 15.0426 20.6102 14.0775 20.5486 13.1071C20.5207 12.3997 20.3623 11.7035 20.0817 11.0536C19.7708 10.3111 19.1841 9.71843 18.445 9.40043C17.6033 9.05932 16.6866 8.94599 15.7873 9.07185C14.9354 9.16843 14.1449 9.56299 13.5554 10.1859C13.3604 10.381 13.2116 10.6069 13.0423 10.8431Z" fill="#F0000C"/>
<path d="M7.48574 14.9398V9.51836C7.48574 9.30273 7.48572 9.30273 7.26509 9.30273C6.23895 9.30273 5.21283 9.30273 4.1559 9.30273C4.00711 9.30273 3.96606 9.3438 3.96606 9.49782C3.96606 13.1292 3.96606 16.7624 3.96606 20.3972C3.96606 20.5872 3.966 20.5872 4.16097 20.5872H7.23942C7.46517 20.5872 7.4652 20.5872 7.4652 20.3664L7.48574 14.9398Z" fill="#F0000C"/>
<path d="M3.69415 5.74499C3.69415 6.15115 3.81449 6.54819 4.04 6.8859C4.26551 7.22361 4.58605 7.48682 4.96105 7.64225C5.33606 7.79768 5.74868 7.83835 6.14679 7.75911C6.54489 7.67988 6.91059 7.48429 7.19761 7.19709C7.48463 6.90989 7.6801 6.54398 7.75929 6.14562C7.83847 5.74727 7.79781 5.33436 7.64248 4.95912C7.48715 4.58388 7.22415 4.26315 6.88665 4.0375C6.54915 3.81185 6.15235 3.69141 5.74645 3.69141C5.20215 3.69141 4.6801 3.90777 4.29522 4.29289C3.91034 4.67801 3.69415 5.20035 3.69415 5.74499Z" fill="#F0000C"/>
</g>
<defs>
<clipPath id="clip0_148_1326">
<rect width="24.5455" height="24.5455" fill="white"/>
</clipPath>
</defs>
</svg>
